<svg width="289" height="147" viewBox="0 0 289 147" fill="none" xmlns="http://www.w3.org/2000/svg">
<path d="M104.069 117.354H95.2543C86.0223 117.354 78.5396 109.86 78.5396 100.615V97.3483H78.3364V3.35693H48.7441V103.892C48.7441 111.329 54.7597 117.354 62.1859 117.354H69.3752C74.3298 117.354 78.3364 121.377 78.3364 126.328V133.528C78.3364 140.965 84.3519 146.989 91.7782 146.989H131.37V117.354H104.058H104.069Z" fill="black"/>
<path d="M206.921 133.245C206.921 124.474 214.02 117.365 222.778 117.365H225.78C229.583 117.365 232.676 114.279 232.676 110.459V79.4791C232.676 75.6702 229.595 72.5733 225.78 72.5733H222.778C214.02 72.5733 206.921 65.464 206.921 56.6933V52.3306C206.921 48.5216 203.84 45.4247 200.025 45.4247H169.733V3.35693H140.141V146.989H200.025C203.828 146.989 206.921 143.903 206.921 140.083V133.234V133.245ZM173.796 117.354C168.841 117.354 164.835 113.33 164.835 108.38V84.0453C164.835 79.0835 168.853 75.0711 173.796 75.0711H191.21C199.968 75.0711 207.067 82.1804 207.067 90.9511V101.485C207.067 110.256 199.968 117.365 191.21 117.365H173.796V117.354Z" fill="black"/>
<path d="M0 3.35693V34.4387H16.8954C22.6061 34.4387 25.4615 41.3446 21.4211 45.3908L2.84411 69.9624C0.993181 72.4038 0 75.3876 0 78.4619V147H29.5923V3.35693H0Z" fill="black"/>
<path d="M228.133 10.7521H226.719V0H228.133V10.7521Z" fill="black"/>
<path d="M230.265 10.7524V2.98512H231.473V4.10718L232.517 3.00147L233.98 2.68555L236.155 3.61151L236.661 5.98635V10.7524H235.318V5.98635L234.959 4.41765L233.692 3.83484L232.185 4.52114L231.603 6.52014V10.7469H230.232H230.265V10.7524Z" fill="black"/>
<path d="M239.375 8.34987L239.913 9.43925L241.344 9.91857L242.524 9.67891L243.122 8.76928L242.883 8.0503L241.986 7.60365L240.076 7.0971L238.733 6.45437L238.135 5.03818L239.043 3.22982L241.191 2.67969L243.356 3.32242L244.014 4.62422L242.883 5.16346L242.361 4.17758L241.137 3.83442L239.87 4.11766L239.451 4.88022L239.777 5.50661L240.778 5.90968L242.584 6.3999L243.895 7.06986L244.493 8.6549L243.492 10.5232L241.3 11.0733L239.005 10.4142L238.244 8.88911L239.375 8.34987Z" fill="black"/>
<path d="M249.22 10.8556L248.192 11.0027L246.67 10.3599L246.354 8.47532V4.01979H245.25V2.99033H246.354V0.299578H247.698V2.99033H250.814V4.01979H247.698V8.48622L247.817 9.45576L248.459 9.78257L249.057 9.68997L249.22 10.8556ZM251.712 1.79202H251.043L250.564 1.26912V0.522899L251.043 0H251.712L252.19 0.522899V1.26912L251.712 1.79202ZM252.054 10.7521H250.711V2.98488H252.054V10.7521Z" fill="black"/>
<path d="M257.242 10.8558L256.214 11.0029L254.691 10.3602L254.376 8.47555V4.02001H253.271V2.99056H254.376V0.299805H255.719V2.99056H257.046V4.02001H255.719V8.48644L255.839 9.45599L256.48 9.7828L257.079 9.6902L257.242 10.8558Z" fill="black"/>
<path d="M265.101 2.98486V10.7521H263.894V9.63004L262.85 10.6922L261.387 11.0517L259.211 10.1257L258.705 7.73453V2.98486H260.049V7.71819L260.407 9.31412L261.675 9.89693L263.181 9.21063L263.763 7.19529V2.98486H265.107H265.101Z" fill="black"/>
<path d="M270.324 10.8558L269.296 11.0029L267.773 10.3602L267.458 8.47555V4.02001H266.354V2.99056H267.458V0.299805H268.801V2.99056H270.128V4.02001H268.801V8.48644L268.921 9.45599L269.563 9.7828L270.161 9.6902L270.324 10.8558Z" fill="black"/>
<path d="M234.143 23.5959H226.719V12.8438H228.133V22.3267H234.143V23.5959Z" fill="black"/>
<path d="M238.74 15.5347L241.41 16.6404L242.438 19.7179L241.41 22.7953L238.74 23.9011L236.069 22.7953L235.041 19.7179L236.069 16.6404L238.74 15.5347ZM238.74 22.7627L240.349 22.0437L241.067 19.7124L240.349 17.3812L238.74 16.6622L237.13 17.3812L236.412 19.7124L237.13 22.0437L238.74 22.7627Z" fill="black"/>
<path d="M250.205 15.8286V23.5958H248.997V22.4738L247.953 23.5359L246.49 23.8954L244.314 22.9695L243.809 20.5783V15.8286H245.152V20.5619L245.511 22.1579L246.778 22.7407L248.285 22.0544L248.867 20.039V15.8286H250.21H250.205Z" fill="black"/>
<path d="M253.142 14.5324H252.456L251.967 13.9931V13.2469L252.445 12.6968H253.147L253.637 13.2469V13.9931L253.147 14.5324H253.142ZM253.468 23.596H252.125V15.8287H253.468V23.596Z" fill="black"/>
<path d="M256.215 21.1936L256.753 22.283L258.184 22.7623L259.364 22.5227L259.962 21.613L259.723 20.894L258.825 20.4474L256.916 19.9408L255.573 19.2981L254.975 17.8819L255.883 16.0736L258.031 15.5234L260.196 16.1662L260.854 17.4625L259.723 18.0018L259.201 17.0159L257.977 16.6727L256.71 16.956L256.291 17.7185L256.617 18.3449L257.618 18.748L259.424 19.2436L260.735 19.9136L261.333 21.4986L260.332 23.3669L258.14 23.9171L255.845 23.258L255.083 21.7329L256.215 21.1936Z" fill="black"/>
<path d="M226.703 36.4396V25.6875H230.624L233.365 26.2703L234.453 28.4382L234.067 29.8707L232.696 30.8239L234.35 31.7335L234.959 33.3785L233.828 35.8296L230.831 36.4396H226.697H226.703ZM228.117 30.3173H230.488L232.191 29.9578L232.968 28.6125L232.163 27.1799L230.298 26.9566H228.122V30.3173H228.117ZM228.117 35.1705H230.831L232.68 34.8709L233.425 33.3785L232.561 31.9296L230.635 31.5865H228.128L228.111 35.1705H228.117Z" fill="black"/>
<path d="M236.815 36.1999L236.01 34.4351L236.907 32.5669L241.275 31.2215L240.753 29.8489L239.453 29.4622L238.229 29.8652L237.544 31.0472L236.483 30.3881L237.495 28.8793L239.583 28.3564L241.911 29.1462L242.613 31.4339V36.4396H241.362V35.5409L240.094 36.4668L238.708 36.7501L236.815 36.1999ZM241.275 32.4253L238.055 33.324L237.446 34.3861L237.924 35.3992L238.925 35.6552L240.339 35.2195L241.28 34.3807V32.4253H241.275Z" fill="black"/>
<path d="M247.774 35.606L248.997 35.1866L249.743 33.8249L250.874 34.424L249.906 36.0526L247.774 36.7389L245.147 35.6332L244.162 32.5558L245.147 29.4783L247.774 28.3726L249.906 29.0589L250.89 30.7311L249.743 31.2975L248.997 29.9249L247.774 29.5055L246.207 30.2245L245.522 32.5558L246.207 34.887L247.774 35.606Z" fill="black"/>
<path d="M252.441 36.4396V25.6875H253.801V29.7345L254.742 28.7323L256.172 28.4055L258.348 29.3315L258.854 31.7226V36.4451H257.51V31.7226L257.151 30.1376L255.884 29.5548L254.377 30.2411L253.795 32.2128V36.4396H252.436H252.441Z" fill="black"/>
<path d="M261.615 32.8991L262.393 34.958L263.943 35.6008L265.243 35.1541L266.064 33.8251L267.108 34.4842L266.096 36.0801L263.872 36.7392L261.245 35.6335L260.244 32.556L261.245 29.4785L263.872 28.3564L266.559 29.5221L267.456 32.3599V32.8991H261.626H261.615ZM261.658 31.8261H265.999L265.389 30.1539L263.867 29.4948L262.496 30.045L261.658 31.8206V31.8261Z" fill="black"/>
<path d="M270.22 36.4396H268.877V25.6875H270.22V36.4396Z" fill="black"/>
<path d="M273.173 27.3761H272.488L271.998 26.8369V26.0907L272.477 25.5405H273.178L273.668 26.0907V26.8369L273.178 27.3761H273.173ZM273.499 36.4397H272.156V28.6725H273.499V36.4397Z" fill="black"/>
<path d="M276.291 32.8991L277.068 34.958L278.618 35.6008L279.918 35.1541L280.74 33.8251L281.784 34.4842L280.772 36.0801L278.548 36.7392L275.921 35.6335L274.92 32.556L275.921 29.4785L278.548 28.3564L281.235 29.5221L282.132 32.3599V32.8991H276.301H276.291ZM276.334 31.8261H280.674L280.065 30.1539L278.542 29.4948L277.172 30.045L276.334 31.8206V31.8261Z" fill="black"/>
<path d="M283.551 36.3689V28.6779H284.758V30.0233L285.656 28.7705L286.939 28.3838L288.103 28.7433L287.744 29.9361L286.836 29.6801L285.389 30.3828L284.9 32.2511V36.4506L283.556 36.3743L283.551 36.3689Z" fill="black"/>
</svg>
